
<svg xmlns="http://www.w3.org/2000/svg" width="2172.7166mm" height="700mm" viewBox="0 0 2172.7166 700" version="1.1" id="svg8">
  <defs id="defs2">
    <clipPath clipPathUnits="userSpaceOnUse" id="clipPath849">
      <path d="M 0,595.28 H 841.89 V 0 H 0 Z" id="path847"></path>
    </clipPath>
    <clipPath clipPathUnits="userSpaceOnUse" id="clipPath1403">
      <path d="M 184.56,542.566 H 565.534 V 424.755 H 184.56 Z" id="path1401"></path>
    </clipPath>
    <clipPath clipPathUnits="userSpaceOnUse" id="clipPath1407">
      <path d="M 184.561,424.756 H 565.534 V 542.567 H 184.561 Z" id="path1405"></path>
    </clipPath>
    <clipPath clipPathUnits="userSpaceOnUse" id="clipPath1427">
      <path d="M 184.934,336.722 H 691.479 V 220.437 H 184.934 Z" id="path1425"></path>
    </clipPath>
    <clipPath clipPathUnits="userSpaceOnUse" id="clipPath1431">
      <path d="M 184.934,220.437 H 691.478 V 336.722 H 184.934 Z" id="path1429"></path>
    </clipPath>
    <clipPath clipPathUnits="userSpaceOnUse" id="clipPath1819">
      <path d="M 182.974,129.443 H 554.541 V 9.96289 H 182.974 Z" id="path1817"></path>
    </clipPath>
    <clipPath clipPathUnits="userSpaceOnUse" id="clipPath1823">
      <path d="m 182.974,9.963 h 371.567 v 119.48 H 182.974 Z" id="path1821"></path>
    </clipPath>
  </defs>
  
  
  <g id="layer1" transform="translate(781.66616,71.517105)">
    <g id="g4260">
      <g id="g4141">
        <g id="g4023">
          <g id="g4016">
            <g id="g1625" transform="matrix(5.8420962,0,0,-5.8420962,-323.92508,233.84402)">
              <path d="m 0,0 h -5.341 v 12.239 h -9.181 v 18.36 h -12.625 l -7.221,-15.09 h -0.106 l -7.212,15.09 h -12.623 v -38.25 h 6.873 c -5.37,-3.616 -8.904,-9.755 -8.904,-16.72 0,-11.13 9.019,-20.146 20.144,-20.146 4.147,0 8.003,1.252 11.209,3.405 l -1.936,-4.787 h 12.646 l 2.416,6.118 H 2.138 l 2.394,-6.118 h 13.699 z" style="fill:#231916;fill-opacity:1;fill-rule:nonzero;stroke:none" id="path1627"></path>
            </g>
            <g id="g1629" transform="matrix(5.8420962,0,0,-5.8420962,-401.53849,402.87684)">
              <path d="M 0,0 8.427,21.296 16.852,0 Z m 23.013,-10.936 v 0 L 9.224,23.922 c -0.133,0.323 -0.45,0.54 -0.797,0.54 -0.344,0 -0.66,-0.217 -0.792,-0.54 L 1.733,9.002 v 25.012 c 0,0.397 -0.271,0.745 -0.667,0.833 C 0.678,34.932 0.285,34.742 0.112,34.378 L -11.944,9.067 -20.179,26.356 -9.144,49.518 V 25.719 c 0,-0.466 0.375,-0.85 0.849,-0.85 0.468,0 0.851,0.384 0.851,0.85 v 27.558 c 0,0.4 -0.273,0.743 -0.665,0.83 -0.387,0.087 -0.787,-0.104 -0.953,-0.462 L -21.123,28.331 -33.184,53.645 c -0.17,0.358 -0.569,0.549 -0.954,0.462 -0.388,-0.087 -0.664,-0.43 -0.664,-0.83 V 25.719 c 0,-0.466 0.38,-0.85 0.851,-0.85 0.474,0 0.853,0.384 0.853,0.85 v 23.799 l 7.473,-15.691 V 18.444 c -0.444,-0.082 -0.879,-0.191 -1.32,-0.32 -6.153,-1.826 -10.141,-7.463 -10.138,-13.569 0,-1.334 0.19,-2.69 0.591,-4.037 1.823,-6.149 7.457,-10.129 13.564,-10.129 1.335,0 2.692,0.185 4.033,0.582 4.747,1.41 8.211,5.099 9.54,9.513 0.137,0.453 -0.121,0.926 -0.573,1.061 -0.443,0.137 -0.925,-0.123 -1.057,-0.572 -1.172,-3.887 -4.206,-7.129 -8.395,-8.368 -1.182,-0.355 -2.376,-0.519 -3.548,-0.519 -5.368,0 -10.333,3.508 -11.937,8.916 -0.345,1.186 -0.514,2.38 -0.514,3.553 0,5.37 3.502,10.335 8.913,11.937 0.285,0.082 0.558,0.156 0.841,0.216 V 6.455 c 0,-0.469 0.383,-0.847 0.854,-0.847 0.468,0 0.854,0.378 0.854,0.847 v 10.511 c 0.338,0.027 0.674,0.044 1.006,0.044 0.244,0 0.494,-0.009 0.737,-0.023 0.468,-0.027 0.871,0.329 0.895,0.8 0.03,0.469 -0.329,0.868 -0.794,0.896 -0.279,0.016 -0.56,0.027 -0.838,0.027 -0.332,0 -0.668,-0.011 -1.006,-0.035 V 30.251 L -12.712,6.724 c 0.139,-0.296 0.44,-0.488 0.768,-0.488 0.327,0 0.629,0.192 0.767,0.488 L 0.032,30.251 V 4.699 l -6.186,-15.635 c -0.176,-0.44 0.042,-0.93 0.477,-1.1 0.439,-0.176 0.927,0.041 1.106,0.476 l 3.899,9.857 h 18.199 l 3.896,-9.857 c 0.136,-0.339 0.456,-0.54 0.796,-0.54 0.106,0 0.213,0.017 0.314,0.064 0.436,0.17 0.652,0.66 0.48,1.1" style="fill:#ffffff;fill-opacity:1;fill-rule:nonzero;stroke:none" id="path1631"></path>
            </g>
          </g>
        </g>
        <g id="g4010">
          <g id="g3899">
            <g id="g1445" transform="matrix(5.8420962,0,0,-5.8420962,-170.12548,387.50164)">
              <path d="M 0,0 V 10.224 H 2.126 L 4.762,5.839 C 5.448,4.704 6.04,3.52 6.508,2.41 H 6.537 C 6.417,3.776 6.373,5.097 6.373,6.657 v 3.567 H 8.1 V 0 H 6.175 L 3.505,4.505 C 2.851,5.611 2.169,6.871 1.667,8.024 L 1.624,8.008 C 1.701,6.688 1.715,5.338 1.715,3.656 V 0 Z" style="fill:#231916;fill-opacity:1;fill-rule:nonzero;stroke:none" id="path1447"></path>
            </g>
            <g id="g1449" transform="matrix(5.8420962,0,0,-5.8420962,-87.759517,366.41514)">
              <path d="m 0,0 c -1.319,0.03 -2.58,-0.257 -2.58,-1.38 0,-0.728 0.471,-1.062 1.063,-1.062 0.745,0 1.289,0.484 1.456,1.015 C -0.017,-1.29 0,-1.139 0,-1.016 Z m 1.821,-1.835 c 0,-0.668 0.03,-1.319 0.104,-1.774 H 0.244 L 0.121,-2.79 H 0.077 c -0.456,-0.578 -1.229,-0.986 -2.186,-0.986 -1.486,0 -2.319,1.076 -2.319,2.199 0,1.865 1.652,2.806 4.381,2.791 v 0.12 c 0,0.487 -0.197,1.29 -1.501,1.29 -0.728,0 -1.487,-0.228 -1.987,-0.545 l -0.364,1.213 c 0.546,0.334 1.503,0.653 2.669,0.653 2.367,0 3.051,-1.502 3.051,-3.109 z" style="fill:#231916;fill-opacity:1;fill-rule:nonzero;stroke:none" id="path1451"></path>
            </g>
            <g id="g1453" transform="matrix(5.8420962,0,0,-5.8420962,-53.617177,333.26244)">
              <path d="M 0,0 V -1.898 H 1.775 V -3.292 H 0 v -3.262 c 0,-0.895 0.244,-1.366 0.957,-1.366 0.35,0 0.516,0.029 0.727,0.09 L 1.715,-9.254 C 1.439,-9.36 0.957,-9.451 0.364,-9.451 c -0.682,0 -1.26,0.241 -1.608,0.622 -0.394,0.424 -0.574,1.093 -0.574,2.061 v 3.476 h -1.064 v 1.394 h 1.064 v 1.367 z" style="fill:#231916;fill-opacity:1;fill-rule:nonzero;stroke:none" id="path1455"></path>
            </g>
            <path d="m -34.997217,344.35194 h 10.98901 v 43.1556 h -10.98901 z m 11.61993,-12.0464 c 0,3.2599 -2.38941,5.842 -6.21015,5.842 -3.62796,0 -6.01738,-2.5821 -6.01738,-5.842 0,-3.3768 2.48877,-5.9531 6.11667,-5.9531 3.72145,0 6.02324,2.5763 6.11086,5.9531" style="fill:#231916;fill-opacity:1;fill-rule:nonzero;stroke:none;stroke-width:5.84209" id="path1457"></path>
            <g id="g1459" transform="matrix(5.8420962,0,0,-5.8420962,-3.7793973,365.96474)">
              <path d="m 0,0 c 0,-1.427 0.698,-2.503 1.835,-2.503 1.061,0 1.805,1.046 1.805,2.533 0,1.153 -0.515,2.473 -1.789,2.473 C 0.531,2.503 0,1.227 0,0 m 5.568,0.073 c 0,-2.714 -1.913,-3.927 -3.793,-3.927 -2.093,0 -3.703,1.441 -3.703,3.807 0,2.427 1.595,3.913 3.824,3.913 2.201,0 3.672,-1.547 3.672,-3.793" style="fill:#231916;fill-opacity:1;fill-rule:nonzero;stroke:none" id="path1461"></path>
            </g>
            <g id="g1463" transform="matrix(5.8420962,0,0,-5.8420962,37.722843,357.20154)">
              <path d="m 0,0 c 0,0.85 -0.017,1.564 -0.061,2.199 h 1.638 l 0.09,-1.106 h 0.048 c 0.316,0.575 1.121,1.275 2.348,1.275 1.29,0 2.626,-0.837 2.626,-3.173 V -5.187 H 4.822 v 4.171 C 4.822,0.047 4.428,0.85 3.413,0.85 2.669,0.85 2.155,0.318 1.956,-0.243 1.896,-0.41 1.881,-0.638 1.881,-0.849 V -5.187 H 0 Z" style="fill:#231916;fill-opacity:1;fill-rule:nonzero;stroke:none" id="path1465"></path>
            </g>
            <g id="g1467" transform="matrix(5.8420962,0,0,-5.8420962,111.30229,366.41514)">
              <path d="m 0,0 c -1.319,0.03 -2.577,-0.257 -2.577,-1.38 0,-0.728 0.469,-1.062 1.06,-1.062 0.745,0 1.29,0.484 1.457,1.015 C -0.014,-1.29 0,-1.139 0,-1.016 Z m 1.821,-1.835 c 0,-0.668 0.03,-1.319 0.107,-1.774 H 0.244 L 0.124,-2.79 H 0.078 c -0.456,-0.578 -1.23,-0.986 -2.186,-0.986 -1.486,0 -2.32,1.076 -2.32,2.199 0,1.865 1.653,2.806 4.385,2.791 v 0.12 c 0,0.487 -0.198,1.29 -1.505,1.29 -0.728,0 -1.486,-0.228 -1.985,-0.545 l -0.363,1.213 c 0.543,0.334 1.5,0.653 2.669,0.653 2.367,0 3.048,-1.502 3.048,-3.109 z" style="fill:#231916;fill-opacity:1;fill-rule:nonzero;stroke:none" id="path1469"></path>
            </g>
            <path d="m 133.48881,324.58814 h 10.989 v 62.9194 h -10.989 z" style="fill:#231916;fill-opacity:1;fill-rule:nonzero;stroke:none;stroke-width:5.84209" id="path1471"></path>
            <g id="g1473" transform="matrix(5.8420962,0,0,-5.8420962,225.50535,363.13484)">
              <path d="M 0,0 C -0.063,1.32 -0.138,2.911 -0.123,4.308 H -0.167 C -0.5,3.048 -0.926,1.668 -1.379,0.378 l -1.488,-4.429 h -1.44 l -1.367,4.368 c -0.395,1.307 -0.759,2.701 -1.033,3.991 h -0.031 c -0.043,-1.35 -0.103,-2.974 -0.18,-4.369 l -0.228,-4.11 H -8.89 l 0.682,10.224 h 2.456 l 1.338,-4.112 c 0.363,-1.199 0.681,-2.412 0.938,-3.547 h 0.048 c 0.273,1.105 0.621,2.365 1.014,3.561 l 1.412,4.098 H 1.425 L 2.016,-4.171 H 0.198 Z" style="fill:#231916;fill-opacity:1;fill-rule:nonzero;stroke:none" id="path1475"></path>
            </g>
            <g id="g1477" transform="matrix(5.8420962,0,0,-5.8420962,286.60784,374.57364)">
              <path d="M 0,0 C 0,-0.879 0.029,-1.607 0.06,-2.213 H -1.578 L -1.67,-1.09 h -0.031 c -0.317,-0.531 -1.046,-1.29 -2.365,-1.29 -1.351,0 -2.578,0.803 -2.578,3.215 v 4.338 h 1.865 v -4.02 c 0,-1.227 0.394,-2.015 1.38,-2.015 0.742,0 1.23,0.528 1.427,0.999 0.061,0.167 0.104,0.364 0.104,0.578 V 5.173 H 0 Z" style="fill:#231916;fill-opacity:1;fill-rule:nonzero;stroke:none" id="path1479"></path>
            </g>
            <g id="g1481" transform="matrix(5.8420962,0,0,-5.8420962,297.88714,377.48364)">
              <path d="m 0,0 c 0.425,-0.261 1.229,-0.531 1.896,-0.531 0.818,0 1.182,0.334 1.182,0.818 0,0.501 -0.302,0.759 -1.213,1.076 -1.44,0.501 -2.046,1.29 -2.032,2.156 0,1.303 1.076,2.319 2.791,2.319 0.818,0 1.533,-0.21 1.959,-0.441 L 4.217,4.08 C 3.899,4.261 3.305,4.505 2.654,4.505 1.988,4.505 1.624,4.185 1.624,3.729 1.624,3.259 1.971,3.031 2.911,2.697 4.247,2.212 4.87,1.53 4.885,0.438 c 0,-1.334 -1.049,-2.32 -3.004,-2.32 -0.895,0 -1.7,0.228 -2.246,0.531 z" style="fill:#231916;fill-opacity:1;fill-rule:nonzero;stroke:none" id="path1483"></path>
            </g>
            <g id="g1485" transform="matrix(5.8420962,0,0,-5.8420962,362.05914,361.36064)">
              <path d="M 0,0 C 0.017,0.683 -0.288,1.805 -1.531,1.805 -2.684,1.805 -3.168,0.759 -3.245,0 Z m -3.245,-1.306 c 0.047,-1.334 1.093,-1.912 2.276,-1.912 0.866,0 1.487,0.123 2.049,0.334 l 0.27,-1.289 c -0.634,-0.258 -1.514,-0.469 -2.577,-0.469 -2.396,0 -3.809,1.488 -3.809,3.746 0,2.049 1.246,3.974 3.611,3.974 2.414,0 3.186,-1.972 3.186,-3.596 0,-0.347 -0.031,-0.621 -0.06,-0.788 z" style="fill:#231916;fill-opacity:1;fill-rule:nonzero;stroke:none" id="path1487"></path>
            </g>
            <g id="g1489" transform="matrix(5.8420962,0,0,-5.8420962,419.78654,374.57364)">
              <path d="m 0,0 c 0,-0.879 0.029,-1.607 0.06,-2.213 h -1.638 l -0.089,1.123 h -0.031 c -0.32,-0.531 -1.049,-1.29 -2.365,-1.29 -1.351,0 -2.581,0.803 -2.581,3.215 v 4.338 h 1.865 v -4.02 c 0,-1.227 0.394,-2.015 1.38,-2.015 0.744,0 1.23,0.528 1.428,0.999 0.06,0.167 0.106,0.364 0.106,0.578 V 5.173 H 0 Z" style="fill:#231916;fill-opacity:1;fill-rule:nonzero;stroke:none" id="path1491"></path>
            </g>
            <g id="g1493" transform="matrix(5.8420962,0,0,-5.8420962,431.59344,357.20154)">
              <path d="M 0,0 C 0,0.85 -0.014,1.564 -0.061,2.199 H 1.548 L 1.624,1.106 H 1.67 c 0.365,0.579 1.031,1.262 2.275,1.262 0.971,0 1.729,-0.547 2.046,-1.365 h 0.031 c 0.26,0.408 0.561,0.712 0.911,0.923 0.408,0.29 0.88,0.442 1.488,0.442 1.227,0 2.474,-0.837 2.474,-3.203 V -5.187 H 9.074 v 4.082 C 9.074,0.121 8.648,0.85 7.752,0.85 7.115,0.85 6.646,0.395 6.45,-0.137 6.402,-0.317 6.356,-0.545 6.356,-0.758 V -5.187 H 4.537 v 4.278 C 4.537,0.121 4.126,0.85 3.262,0.85 2.566,0.85 2.095,0.305 1.928,-0.213 1.851,-0.394 1.821,-0.607 1.821,-0.818 V -5.187 H 0 Z" style="fill:#231916;fill-opacity:1;fill-rule:nonzero;stroke:none" id="path1495"></path>
            </g>
            <g id="g1497" transform="matrix(5.8420962,0,0,-5.8420962,533.64784,365.96474)">
              <path d="m 0,0 c 0,-1.427 0.698,-2.503 1.836,-2.503 1.061,0 1.808,1.046 1.808,2.533 0,1.153 -0.518,2.473 -1.792,2.473 C 0.533,2.503 0,1.227 0,0 m 5.569,0.073 c 0,-2.714 -1.913,-3.927 -3.793,-3.927 -2.093,0 -3.7,1.441 -3.7,3.807 0,2.427 1.591,3.913 3.823,3.913 2.2,0 3.67,-1.547 3.67,-3.793" style="fill:#231916;fill-opacity:1;fill-rule:nonzero;stroke:none" id="path1499"></path>
            </g>
            <g id="g1501" transform="matrix(5.8420962,0,0,-5.8420962,576.40504,387.50164)">
              <path d="M 0,0 V 5.992 H -1.003 V 7.386 H 0 v 0.318 c 0,0.955 0.258,1.911 0.896,2.52 0.543,0.514 1.287,0.712 1.925,0.712 0.5,0 0.894,-0.075 1.198,-0.181 L 3.884,9.314 C 3.687,9.388 3.428,9.448 3.093,9.448 2.169,9.448 1.85,8.678 1.85,7.767 V 7.386 H 3.473 V 5.992 H 1.864 V 0 Z" style="fill:#231916;fill-opacity:1;fill-rule:nonzero;stroke:none" id="path1503"></path>
            </g>
            <g id="g1505" transform="matrix(5.8420962,0,0,-5.8420962,-119.69417,449.52834)">
              <path d="M 0,0 C -0.061,1.319 -0.138,2.911 -0.121,4.308 H -0.167 C -0.5,3.048 -0.926,1.667 -1.38,0.378 l -1.487,-4.429 h -1.441 l -1.366,4.368 c -0.395,1.304 -0.759,2.701 -1.03,3.991 H -6.735 C -6.781,2.957 -6.841,1.333 -6.918,-0.063 L -7.146,-4.174 H -8.89 l 0.682,10.226 h 2.459 l 1.335,-4.111 c 0.363,-1.199 0.681,-2.413 0.938,-3.551 h 0.048 c 0.273,1.108 0.621,2.368 1.014,3.565 l 1.412,4.097 H 1.427 L 2.018,-4.174 h -1.82 z" style="fill:#231916;fill-opacity:1;fill-rule:nonzero;stroke:none" id="path1507"></path>
            </g>
            <g id="g1509" transform="matrix(5.8420962,0,0,-5.8420962,-88.287657,452.38104)">
              <path d="m 0,0 c 0,-1.424 0.698,-2.503 1.838,-2.503 1.058,0 1.805,1.049 1.805,2.532 0,1.155 -0.517,2.475 -1.792,2.475 C 0.531,2.504 0,1.23 0,0 m 5.568,0.077 c 0,-2.714 -1.913,-3.93 -3.79,-3.93 -2.096,0 -3.703,1.444 -3.703,3.81 0,2.426 1.594,3.913 3.823,3.913 2.199,0 3.67,-1.547 3.67,-3.793" style="fill:#231916;fill-opacity:1;fill-rule:nonzero;stroke:none" id="path1511"></path>
            </g>
            <g id="g1513" transform="matrix(5.8420962,0,0,-5.8420962,-17.891577,448.74674)">
              <path d="m 0,0 c 0,0.153 -0.014,0.334 -0.043,0.487 -0.167,0.729 -0.759,1.321 -1.612,1.321 -1.196,0 -1.864,-1.063 -1.864,-2.444 0,-1.349 0.668,-2.336 1.852,-2.336 0.758,0 1.426,0.516 1.607,1.321 0.046,0.167 0.06,0.347 0.06,0.545 z m 1.865,6.463 v -8.692 c 0,-0.759 0.033,-1.578 0.063,-2.079 H 0.258 L 0.184,-3.139 H 0.153 c -0.441,-0.818 -1.336,-1.336 -2.412,-1.336 -1.762,0 -3.155,1.503 -3.155,3.78 -0.017,2.472 1.53,3.943 3.305,3.943 1.017,0 1.745,-0.425 2.08,-0.973 H 0 v 4.188 z" style="fill:#231916;fill-opacity:1;fill-rule:nonzero;stroke:none" id="path1515"></path>
            </g>
            <g id="g1517" transform="matrix(5.8420962,0,0,-5.8420962,31.418643,447.77104)">
              <path d="M 0,0 C 0.014,0.685 -0.291,1.808 -1.534,1.808 -2.687,1.808 -3.172,0.759 -3.248,0 Z m -3.248,-1.304 c 0.046,-1.334 1.093,-1.911 2.276,-1.911 0.865,0 1.487,0.12 2.049,0.334 l 0.273,-1.29 c -0.638,-0.258 -1.517,-0.473 -2.579,-0.473 -2.397,0 -3.807,1.489 -3.807,3.751 0,2.046 1.243,3.974 3.608,3.974 2.414,0 3.186,-1.972 3.186,-3.596 0,-0.347 -0.03,-0.623 -0.06,-0.789 z" style="fill:#231916;fill-opacity:1;fill-rule:nonzero;stroke:none" id="path1519"></path>
            </g>
            <g id="g1521" transform="matrix(5.8420962,0,0,-5.8420962,50.490763,444.66774)">
              <path d="m 0,0 c 0,1.003 -0.015,1.715 -0.061,2.383 h 1.624 l 0.06,-1.41 H 1.684 C 2.048,2.019 2.914,2.55 3.703,2.55 3.884,2.55 3.991,2.533 4.141,2.503 V 0.745 C 3.991,0.775 3.824,0.806 3.595,0.806 2.7,0.806 2.095,0.228 1.928,-0.605 1.898,-0.772 1.868,-0.97 1.868,-1.183 V -5.006 H 0 Z" style="fill:#231916;fill-opacity:1;fill-rule:nonzero;stroke:none" id="path1523"></path>
            </g>
            <g id="g1525" transform="matrix(5.8420962,0,0,-5.8420962,82.057343,443.59514)">
              <path d="M 0,0 C 0,0.849 -0.015,1.561 -0.061,2.199 H 1.577 L 1.669,1.093 h 0.046 c 0.316,0.575 1.121,1.273 2.351,1.273 1.287,0 2.623,-0.835 2.623,-3.171 V -5.189 H 4.825 v 4.173 c 0,1.06 -0.394,1.865 -1.412,1.865 C 2.669,0.849 2.155,0.317 1.957,-0.244 1.898,-0.411 1.881,-0.638 1.881,-0.849 v -4.34 H 0 Z" style="fill:#231916;fill-opacity:1;fill-rule:nonzero;stroke:none" id="path1527"></path>
            </g>
            <g id="g1529" transform="matrix(5.8420962,0,0,-5.8420962,174.00493,452.80874)">
              <path d="m 0,0 c -1.319,0.028 -2.58,-0.258 -2.58,-1.381 0,-0.728 0.471,-1.062 1.062,-1.062 0.743,0 1.29,0.485 1.457,1.016 C -0.017,-1.29 0,-1.141 0,-1.017 Z m 1.818,-1.838 c 0,-0.665 0.033,-1.317 0.107,-1.774 H 0.241 L 0.12,-2.794 H 0.075 c -0.455,-0.575 -1.227,-0.985 -2.184,-0.985 -1.486,0 -2.322,1.079 -2.322,2.201 0,1.865 1.655,2.805 4.385,2.791 v 0.12 c 0,0.485 -0.198,1.29 -1.502,1.29 -0.728,0 -1.487,-0.227 -1.987,-0.545 l -0.364,1.214 c 0.546,0.334 1.503,0.651 2.669,0.651 2.367,0 3.048,-1.504 3.048,-3.111 z" style="fill:#231916;fill-opacity:1;fill-rule:nonzero;stroke:none" id="path1531"></path>
            </g>
            <g id="g1533" transform="matrix(5.8420962,0,0,-5.8420962,196.17801,443.59514)">
              <path d="M 0,0 C 0,0.849 -0.014,1.561 -0.06,2.199 H 1.578 L 1.67,1.093 h 0.045 c 0.317,0.575 1.122,1.273 2.351,1.273 1.288,0 2.624,-0.835 2.624,-3.171 V -5.189 H 4.825 v 4.173 c 0,1.06 -0.394,1.865 -1.412,1.865 C 2.669,0.849 2.155,0.317 1.958,-0.244 1.899,-0.411 1.882,-0.638 1.882,-0.849 v -4.34 H 0 Z" style="fill:#231916;fill-opacity:1;fill-rule:nonzero;stroke:none" id="path1535"></path>
            </g>
            <g id="g1537" transform="matrix(5.8420962,0,0,-5.8420962,275.79124,448.74674)">
              <path d="m 0,0 c 0,0.153 -0.014,0.334 -0.044,0.487 -0.166,0.729 -0.758,1.321 -1.611,1.321 -1.196,0 -1.865,-1.063 -1.865,-2.444 0,-1.349 0.669,-2.336 1.853,-2.336 0.758,0 1.426,0.516 1.607,1.321 0.046,0.167 0.06,0.347 0.06,0.545 z m 1.865,6.463 v -8.692 c 0,-0.759 0.033,-1.578 0.063,-2.079 H 0.258 L 0.184,-3.139 H 0.153 c -0.441,-0.818 -1.337,-1.336 -2.412,-1.336 -1.761,0 -3.155,1.503 -3.155,3.78 -0.017,2.472 1.53,3.943 3.305,3.943 1.017,0 1.744,-0.425 2.08,-0.973 H 0 v 4.188 z" style="fill:#231916;fill-opacity:1;fill-rule:nonzero;stroke:none" id="path1539"></path>
            </g>
            <g id="g1541" transform="matrix(5.8420962,0,0,-5.8420962,360.02774,472.13784)">
              <path d="m 0,0 c -0.44,-0.228 -1.411,-0.471 -2.641,-0.471 -3.244,0 -5.217,2.048 -5.217,5.159 0,3.367 2.336,5.401 5.462,5.401 1.227,0 2.108,-0.26 2.486,-0.457 L -0.321,8.147 c -0.484,0.211 -1.153,0.395 -2.001,0.395 -2.08,0 -3.58,-1.307 -3.58,-3.763 0,-2.246 1.319,-3.686 3.566,-3.686 0.758,0 1.546,0.15 2.031,0.378 z" style="fill:#231916;fill-opacity:1;fill-rule:nonzero;stroke:none" id="path1543"></path>
            </g>
            <g id="g1545" transform="matrix(5.8420962,0,0,-5.8420962,375.99364,452.38104)">
              <path d="m 0,0 c 0,-1.424 0.699,-2.503 1.838,-2.503 1.059,0 1.805,1.049 1.805,2.532 0,1.155 -0.516,2.475 -1.792,2.475 C 0.532,2.504 0,1.23 0,0 m 5.568,0.077 c 0,-2.714 -1.912,-3.93 -3.79,-3.93 -2.096,0 -3.703,1.444 -3.703,3.81 0,2.426 1.594,3.913 3.824,3.913 2.198,0 3.669,-1.547 3.669,-3.793" style="fill:#231916;fill-opacity:1;fill-rule:nonzero;stroke:none" id="path1547"></path>
            </g>
            <g id="g1549" transform="matrix(5.8420962,0,0,-5.8420962,417.49594,443.59514)">
              <path d="M 0,0 C 0,0.849 -0.014,1.561 -0.06,2.199 H 1.581 L 1.67,1.093 h 0.045 c 0.32,0.575 1.122,1.273 2.351,1.273 1.29,0 2.624,-0.835 2.624,-3.171 V -5.189 H 4.825 v 4.173 c 0,1.06 -0.394,1.865 -1.409,1.865 -0.747,0 -1.26,-0.532 -1.458,-1.093 C 1.899,-0.411 1.882,-0.638 1.882,-0.849 v -4.34 H 0 Z" style="fill:#231916;fill-opacity:1;fill-rule:nonzero;stroke:none" id="path1551"></path>
            </g>
            <g id="g1553" transform="matrix(5.8420962,0,0,-5.8420962,480.27854,419.67294)">
              <path d="M 0,0 V -1.896 H 1.775 V -3.292 H 0 v -3.262 c 0,-0.893 0.244,-1.364 0.957,-1.364 0.347,0 0.514,0.03 0.727,0.091 L 1.715,-9.254 C 1.44,-9.358 0.957,-9.451 0.364,-9.451 c -0.682,0 -1.26,0.243 -1.608,0.624 -0.394,0.425 -0.577,1.09 -0.577,2.062 v 3.473 h -1.061 v 1.396 h 1.061 v 1.364 z" style="fill:#231916;fill-opacity:1;fill-rule:nonzero;stroke:none" id="path1555"></path>
            </g>
            <g id="g1557" transform="matrix(5.8420962,0,0,-5.8420962,525.04424,447.77104)">
              <path d="M 0,0 C 0.017,0.685 -0.288,1.808 -1.531,1.808 -2.684,1.808 -3.168,0.759 -3.245,0 Z m -3.245,-1.304 c 0.044,-1.334 1.093,-1.911 2.276,-1.911 0.862,0 1.487,0.12 2.046,0.334 l 0.274,-1.29 c -0.636,-0.258 -1.518,-0.473 -2.578,-0.473 -2.399,0 -3.809,1.489 -3.809,3.751 0,2.046 1.243,3.974 3.611,3.974 2.41,0 3.187,-1.972 3.187,-3.596 0,-0.347 -0.032,-0.623 -0.06,-0.789 z" style="fill:#231916;fill-opacity:1;fill-rule:nonzero;stroke:none" id="path1559"></path>
            </g>
            <g id="g1561" transform="matrix(5.8420962,0,0,-5.8420962,544.12794,443.59514)">
              <path d="M 0,0 C 0,0.849 -0.017,1.561 -0.06,2.199 H 1.549 L 1.621,1.106 h 0.047 c 0.364,0.579 1.034,1.26 2.277,1.26 0.97,0 1.728,-0.548 2.047,-1.366 h 0.031 c 0.258,0.41 0.56,0.715 0.908,0.925 0.411,0.288 0.88,0.441 1.489,0.441 1.229,0 2.473,-0.835 2.473,-3.201 V -5.189 H 9.072 v 4.08 C 9.072,0.12 8.646,0.849 7.75,0.849 7.115,0.849 6.644,0.395 6.448,-0.137 6.4,-0.322 6.356,-0.548 6.356,-0.759 v -4.43 H 4.535 v 4.277 c 0,1.032 -0.41,1.761 -1.273,1.761 -0.699,0 -1.17,-0.545 -1.337,-1.063 C 1.849,-0.395 1.82,-0.608 1.82,-0.818 V -5.189 H 0 Z" style="fill:#231916;fill-opacity:1;fill-rule:nonzero;stroke:none" id="path1563"></path>
            </g>
            <g id="g1565" transform="matrix(5.8420962,0,0,-5.8420962,630.22764,455.83254)">
              <path d="m 0,0 c 0,-0.181 0.014,-0.348 0.061,-0.516 0.18,-0.757 0.846,-1.302 1.637,-1.302 1.183,0 1.881,0.985 1.881,2.439 C 3.579,1.928 2.941,2.99 1.743,2.99 0.968,2.99 0.257,2.429 0.074,1.607 0.028,1.457 0,1.29 0,1.141 Z m -1.868,1.837 c 0,0.97 -0.031,1.759 -0.06,2.458 h 1.64 l 0.09,-1.141 h 0.031 c 0.545,0.836 1.41,1.307 2.533,1.307 1.697,0 3.108,-1.457 3.108,-3.763 0,-2.67 -1.682,-3.96 -3.366,-3.96 -0.925,0 -1.701,0.395 -2.08,0.986 H 0 v -3.821 h -1.868 z" style="fill:#231916;fill-opacity:1;fill-rule:nonzero;stroke:none" id="path1567"></path>
            </g>
            <g id="g1569" transform="matrix(5.8420962,0,0,-5.8420962,679.69154,452.38104)">
              <path d="m 0,0 c 0,-1.424 0.698,-2.503 1.838,-2.503 1.059,0 1.805,1.049 1.805,2.532 0,1.155 -0.515,2.475 -1.791,2.475 C 0.531,2.504 0,1.23 0,0 m 5.568,0.077 c 0,-2.714 -1.912,-3.93 -3.791,-3.93 -2.094,0 -3.702,1.444 -3.702,3.81 0,2.426 1.594,3.913 3.823,3.913 2.2,0 3.67,-1.547 3.67,-3.793" style="fill:#231916;fill-opacity:1;fill-rule:nonzero;stroke:none" id="path1571"></path>
            </g>
            <g id="g1573" transform="matrix(5.8420962,0,0,-5.8420962,721.19664,444.66774)">
              <path d="M 0,0 C 0,1.003 -0.014,1.715 -0.061,2.383 H 1.563 L 1.624,0.973 H 1.685 C 2.049,2.019 2.914,2.55 3.702,2.55 3.883,2.55 3.99,2.533 4.144,2.503 V 0.745 C 3.99,0.775 3.823,0.806 3.596,0.806 2.7,0.806 2.095,0.228 1.928,-0.605 1.897,-0.772 1.867,-0.97 1.867,-1.183 V -5.006 H 0 Z" style="fill:#231916;fill-opacity:1;fill-rule:nonzero;stroke:none" id="path1575"></path>
            </g>
            <g id="g1577" transform="matrix(5.8420962,0,0,-5.8420962,774.84234,452.80874)">
              <path d="m 0,0 c -1.32,0.028 -2.58,-0.258 -2.58,-1.381 0,-0.728 0.472,-1.062 1.062,-1.062 0.743,0 1.29,0.485 1.457,1.016 C -0.017,-1.29 0,-1.141 0,-1.017 Z m 1.818,-1.838 c 0,-0.665 0.034,-1.317 0.107,-1.774 H 0.241 L 0.12,-2.794 H 0.074 c -0.455,-0.575 -1.227,-0.985 -2.182,-0.985 -1.488,0 -2.324,1.079 -2.324,2.201 0,1.865 1.655,2.805 4.385,2.791 v 0.12 c 0,0.485 -0.197,1.29 -1.501,1.29 -0.728,0 -1.486,-0.227 -1.988,-0.545 L -3.9,3.292 c 0.547,0.334 1.504,0.651 2.671,0.651 2.366,0 3.047,-1.504 3.047,-3.111 z" style="fill:#231916;fill-opacity:1;fill-rule:nonzero;stroke:none" id="path1579"></path>
            </g>
            <g id="g1581" transform="matrix(5.8420962,0,0,-5.8420962,797.01834,444.66774)">
              <path d="m 0,0 c 0,1.003 -0.014,1.715 -0.061,2.383 h 1.624 l 0.061,-1.41 h 0.06 C 2.048,2.019 2.914,2.55 3.702,2.55 3.883,2.55 3.99,2.533 4.141,2.503 V 0.745 C 3.99,0.775 3.823,0.806 3.596,0.806 2.7,0.806 2.095,0.228 1.928,-0.605 1.897,-0.772 1.867,-0.97 1.867,-1.183 V -5.006 H 0 Z" style="fill:#231916;fill-opacity:1;fill-rule:nonzero;stroke:none" id="path1583"></path>
            </g>
            <g id="g1585" transform="matrix(5.8420962,0,0,-5.8420962,837.36504,430.74714)">
              <path d="M 0,0 1.334,-3.96 C 1.487,-4.415 1.638,-4.977 1.745,-5.4 h 0.044 c 0.123,0.423 0.257,0.968 0.394,1.457 L 3.336,0 H 5.338 L 3.489,-5.036 c -1.015,-2.761 -1.7,-3.99 -2.58,-4.749 -0.728,-0.652 -1.486,-0.896 -1.955,-0.956 l -0.427,1.578 c 0.321,0.076 0.714,0.243 1.092,0.517 0.351,0.227 0.759,0.666 1.017,1.167 0.076,0.136 0.123,0.244 0.123,0.333 0,0.078 -0.017,0.181 -0.107,0.365 L -2.048,0 Z" style="fill:#231916;fill-opacity:1;fill-rule:nonzero;stroke:none" id="path1587"></path>
            </g>
            <g id="g1589" transform="matrix(5.8420962,0,0,-5.8420962,922.73734,448.74674)">
              <path d="M 0,0 -0.802,2.52 C -0.999,3.142 -1.166,3.84 -1.319,4.431 H -1.35 C -1.501,3.84 -1.654,3.128 -1.835,2.52 L -2.623,0 Z m -2.928,-1.41 -0.879,-2.898 h -1.927 l 3.278,10.226 h 2.383 L 3.248,-4.308 H 1.243 L 0.32,-1.41 Z" style="fill:#231916;fill-opacity:1;fill-rule:nonzero;stroke:none" id="path1591"></path>
            </g>
            <g id="g1593" transform="matrix(5.8420962,0,0,-5.8420962,949.18684,444.66774)">
              <path d="m 0,0 c 0,1.003 -0.017,1.715 -0.061,2.383 h 1.622 l 0.06,-1.41 H 1.685 C 2.046,2.019 2.911,2.55 3.7,2.55 3.883,2.55 3.987,2.533 4.141,2.503 V 0.745 C 3.987,0.775 3.823,0.806 3.593,0.806 2.7,0.806 2.092,0.228 1.925,-0.605 1.895,-0.772 1.865,-0.97 1.865,-1.183 V -5.006 H 0 Z" style="fill:#231916;fill-opacity:1;fill-rule:nonzero;stroke:none" id="path1595"></path>
            </g>
            <g id="g1597" transform="matrix(5.8420962,0,0,-5.8420962,995.27864,419.67294)">
              <path d="M 0,0 V -1.896 H 1.774 V -3.292 H 0 v -3.262 c 0,-0.893 0.244,-1.364 0.956,-1.364 0.351,0 0.518,0.03 0.729,0.091 l 0.03,-1.427 C 1.44,-9.358 0.956,-9.451 0.364,-9.451 c -0.681,0 -1.26,0.243 -1.607,0.624 -0.395,0.425 -0.575,1.09 -0.575,2.062 v 3.473 h -1.063 v 1.396 h 1.063 v 1.364 z" style="fill:#231916;fill-opacity:1;fill-rule:nonzero;stroke:none" id="path1599"></path>
            </g>
            <g id="g1601" transform="matrix(5.8420962,0,0,-5.8420962,1008.241,484.63234)">
              <path d="M 0,0 C 0.408,1.152 0.818,2.747 1.016,4.002 L 2.974,4.157 C 2.55,2.73 1.864,1.093 1.273,0.12 Z" style="fill:#231916;fill-opacity:1;fill-rule:nonzero;stroke:none" id="path1603"></path>
            </g>
            <g id="g1605" transform="matrix(5.8420962,0,0,-5.8420962,1053.1006,414.17314)">
              <path d="m 0,0 h 1.852 v -4.702 h 0.046 c 0.241,0.394 0.498,0.758 0.743,1.106 L 5.311,0 H 7.616 L 4.097,-4.354 7.844,-10.226 H 5.658 L 2.761,-5.537 1.852,-6.63 v -3.596 H 0 Z" style="fill:#231916;fill-opacity:1;fill-rule:nonzero;stroke:none" id="path1607"></path>
            </g>
            <g id="g1609" transform="matrix(5.8420962,0,0,-5.8420962,1111.978,452.38104)">
              <path d="m 0,0 c 0,-1.424 0.698,-2.503 1.835,-2.503 1.062,0 1.805,1.049 1.805,2.532 0,1.155 -0.515,2.475 -1.788,2.475 C 0.531,2.504 0,1.23 0,0 m 5.567,0.077 c 0,-2.714 -1.911,-3.93 -3.793,-3.93 -2.091,0 -3.702,1.444 -3.702,3.81 0,2.426 1.594,3.913 3.824,3.913 2.201,0 3.671,-1.547 3.671,-3.793" style="fill:#231916;fill-opacity:1;fill-rule:nonzero;stroke:none" id="path1611"></path>
            </g>
            <g id="g1613" transform="matrix(5.8420962,0,0,-5.8420962,1153.4831,444.66774)">
              <path d="m 0,0 c 0,1.003 -0.017,1.715 -0.061,2.383 h 1.622 l 0.063,-1.41 h 0.06 C 2.048,2.019 2.911,2.55 3.699,2.55 3.883,2.55 3.989,2.533 4.141,2.503 V 0.745 C 3.989,0.775 3.822,0.806 3.596,0.806 2.7,0.806 2.092,0.228 1.925,-0.605 1.895,-0.772 1.864,-0.97 1.864,-1.183 V -5.006 H 0 Z" style="fill:#231916;fill-opacity:1;fill-rule:nonzero;stroke:none" id="path1615"></path>
            </g>
            <g id="g1617" transform="matrix(5.8420962,0,0,-5.8420962,1210.9174,447.77104)">
              <path d="M 0,0 C 0.017,0.685 -0.287,1.808 -1.53,1.808 -2.684,1.808 -3.168,0.759 -3.245,0 Z m -3.245,-1.304 c 0.044,-1.334 1.093,-1.911 2.275,-1.911 0.864,0 1.488,0.12 2.046,0.334 l 0.275,-1.29 c -0.636,-0.258 -1.518,-0.473 -2.578,-0.473 -2.399,0 -3.809,1.489 -3.809,3.751 0,2.046 1.243,3.974 3.612,3.974 2.41,0 3.185,-1.972 3.185,-3.596 0,-0.347 -0.03,-0.623 -0.06,-0.789 z" style="fill:#231916;fill-opacity:1;fill-rule:nonzero;stroke:none" id="path1619"></path>
            </g>
            <g id="g1621" transform="matrix(5.8420962,0,0,-5.8420962,1252.8672,452.80874)">
              <path d="m 0,0 c -1.319,0.028 -2.579,-0.258 -2.579,-1.381 0,-0.728 0.471,-1.062 1.062,-1.062 0.743,0 1.289,0.485 1.457,1.016 0.043,0.137 0.06,0.286 0.06,0.41 z m 1.818,-1.838 c 0,-0.665 0.034,-1.317 0.108,-1.774 H 0.241 l -0.12,0.818 H 0.074 c -0.455,-0.575 -1.226,-0.985 -2.182,-0.985 -1.488,0 -2.323,1.079 -2.323,2.201 0,1.865 1.655,2.805 4.385,2.791 v 0.12 c 0,0.485 -0.197,1.29 -1.501,1.29 -0.728,0 -1.487,-0.227 -1.988,-0.545 l -0.364,1.214 c 0.547,0.334 1.503,0.651 2.67,0.651 2.366,0 3.047,-1.504 3.047,-3.111 z" style="fill:#231916;fill-opacity:1;fill-rule:nonzero;stroke:none" id="path1623"></path>
            </g>
            <g id="g1633" transform="matrix(5.8420962,0,0,-5.8420962,-9.9241073,178.00759)">
              <path d="m 0,0 v 3.538 h -7.022 c 0.477,1.317 0.868,2.841 1.164,4.605 0.353,2.105 0.534,4.277 0.534,6.503 v 1.564 h -21.162 v -3.538 h 17.128 c 0,-0.609 -0.041,-1.301 -0.115,-2.076 C -9.55,9.821 -9.663,9.005 -9.815,8.143 -9.968,7.282 -10.16,6.414 -10.407,5.554 -10.602,4.848 -10.829,4.18 -11.07,3.538 H -31.813 V 0 h 13.933 v -5.898 h -8.791 v -3.541 h 17.198 v -9.134 h 4.034 v 12.675 h -8.413 V 0 Z" style="fill:#231916;fill-opacity:1;fill-rule:nonzero;stroke:none" id="path1635"></path>
            </g>
            <path d="M 173.47213,192.61514 H 149.94016 V 77.262956 h 23.53197 z m -92.457017,73.13138 h 68.919217 v -18.8758 H 81.015113 Z m -14.66948,20.68685 c -5.94725,0 -8.89752,-2.96194 -8.89752,-8.87997 v -72.7049 h 23.567 v 21.57487 H 149.94016 V 204.8485 h 23.53197 v 81.58487 z M 82.119283,127.25379 V 106.60197 H 17.225273 V 85.897576 H 105.68628 V 147.71866 H 40.780603 v 20.68686 h 27.32349 c 3.87331,0 8.3717,-0.15715 13.58287,-0.444 5.18778,-0.32114 10.5567,-0.7361 16.11249,-1.23275 5.538307,-0.51403 11.006517,-1.18585 16.316977,-2.03304 5.35136,-0.80035 10.03672,-1.71173 14.01519,-2.75162 l 3.32416,19.56516 c -4.28225,1.33196 -9.4934,2.44787 -15.68019,3.33002 -6.12251,0.89373 -12.56635,1.62987 -19.302267,2.21998 -6.75346,0.59583 -13.64713,1.09249 -20.68686,1.44309 -7.03974,0.36795 -13.62378,0.56087 -19.6645,0.56087 h -29.99918 c -5.9531,0 -8.89751,-2.94441 -8.89751,-8.87997 v -52.9294 z" style="fill:#231916;fill-opacity:1;fill-rule:nonzero;stroke:none;stroke-width:5.84209" id="path1637"></path>
            <g id="g1639" transform="matrix(5.8420962,0,0,-5.8420962,284.19154,175.06376)">
              <path d="M 0,0 C -0.178,-0.43 -0.422,-0.805 -0.742,-1.123 -1.06,-1.44 -1.443,-1.692 -1.9,-1.884 c -0.461,-0.189 -0.954,-0.282 -1.488,-0.282 -1.062,0 -1.933,0.345 -2.604,1.043 C -6.666,-0.427 -7,0.405 -7,1.369 c 0,0.994 0.334,1.832 1.008,2.531 0.671,0.699 1.542,1.046 2.604,1.046 1.09,0 1.974,-0.347 2.646,-1.046 C -0.068,3.201 0.268,2.363 0.268,1.369 0.268,0.888 0.175,0.43 0,0 M 3.598,4.092 C 3.229,4.94 2.714,5.678 2.054,6.296 1.399,6.915 0.603,7.408 -0.321,7.765 -1.25,8.117 -2.271,8.296 -3.388,8.296 -4.477,8.296 -5.48,8.117 -6.393,7.765 -7.307,7.408 -8.1,6.915 -8.772,6.296 -9.442,5.678 -9.961,4.94 -10.33,4.092 -10.7,3.24 -10.881,2.339 -10.881,1.369 c 0,-0.964 0.181,-1.856 0.551,-2.681 0.369,-0.824 0.888,-1.555 1.558,-2.188 0.672,-0.638 1.465,-1.128 2.379,-1.484 0.913,-0.353 1.916,-0.532 3.005,-0.532 1.117,0 2.138,0.179 3.067,0.532 0.924,0.356 1.72,0.846 2.375,1.484 0.66,0.633 1.175,1.364 1.544,2.188 0.367,0.825 0.551,1.717 0.551,2.681 0,0.97 -0.184,1.871 -0.551,2.723" style="fill:#231916;fill-opacity:1;fill-rule:nonzero;stroke:none" id="path1641"></path>
            </g>
            <g id="g1643" transform="matrix(5.8420962,0,0,-5.8420962,276.19024,99.693096)">
              <path d="M 0,0 V 4.336 H -4.034 V 0 h -7.801 V -3.387 H 7.876 V 0 Z" style="fill:#231916;fill-opacity:1;fill-rule:nonzero;stroke:none" id="path1645"></path>
            </g>
            <g id="g1647" transform="matrix(5.8420962,0,0,-5.8420962,268.86474,281.31102)">
              <path d="m 0,0 c -1.017,0 -1.523,0.509 -1.523,1.52 v 8.56 H 2.508 V 3.538 H 18.949 V 0 Z" style="fill:#231916;fill-opacity:1;fill-rule:nonzero;stroke:none" id="path1649"></path>
            </g>
            <g id="g1651" transform="matrix(5.8420962,0,0,-5.8420962,351.78694,189.72039)">
              <path d="M 0,0 H -5.326 V 3.5 H 0 v 3.309 h -5.326 v 3.503 H 0 V 19.25 H 4.029 V -7.079 H 0 Z" style="fill:#231916;fill-opacity:1;fill-rule:nonzero;stroke:none" id="path1653"></path>
            </g>
            <g id="g1655" transform="matrix(5.8420962,0,0,-5.8420962,555.62404,156.84167)">
              <path d="M 0,0 H -3.652 V -15.867 H -7.57 v 29.035 h 3.918 V 3.462 H 0 v 10.16 H 3.921 V -16.971 H 0 Z m -24.734,11.303 h 12.752 V 7.767 H -20.7 V -5.135 h 2.167 c 1.448,0.047 2.928,0.113 4.436,0.19 1.509,0.076 2.901,0.265 4.166,0.569 l 0.575,-3.347 c -1.652,-0.381 -3.465,-0.63 -5.448,-0.745 -1.974,-0.109 -3.968,-0.18 -5.968,-0.208 h -2.439 c -1.018,0 -1.523,0.51 -1.523,1.523 z" style="fill:#231916;fill-opacity:1;fill-rule:nonzero;stroke:none" id="path1657"></path>
            </g>
            <path d="m 773.68904,255.98439 h -23.5494 V 77.262956 h 23.5494 z m -133.7781,-70.90552 h 47.5605 v -75.17024 h -47.5605 z m -23.3684,-95.611784 h 94.2388 V 205.52618 h -85.131 c -6.0699,0 -9.1078,-2.97363 -9.1078,-8.89749 z" style="fill:#231916;fill-opacity:1;fill-rule:nonzero;stroke:none;stroke-width:5.84209" id="path1659"></path>
            <g id="g1661" transform="matrix(5.8420962,0,0,-5.8420962,885.52254,75.320476)">
              <path d="m 0,0 h 4.111 v -1.141 c 0,-1.04 0.307,-2.008 0.912,-2.916 0.611,-0.898 1.414,-1.724 2.418,-2.486 0.999,-0.764 2.163,-1.434 3.484,-2.017 1.317,-0.587 2.683,-1.078 4.107,-1.483 l -1.607,-3.16 c -2.681,0.813 -5.02,1.812 -7.011,3.007 -1.991,1.188 -3.442,2.512 -4.357,3.957 -0.914,-1.445 -2.367,-2.769 -4.357,-3.957 -1.991,-1.195 -4.333,-2.194 -7.022,-3.007 l -1.599,3.16 c 1.421,0.405 2.79,0.896 4.108,1.483 1.323,0.583 2.484,1.253 3.489,2.017 0.994,0.762 1.804,1.588 2.413,2.486 C -0.301,-3.149 0,-2.181 0,-1.141 Z m -4.491,-30.366 v -2.356 H 13.2 V -36.15 H -6.885 c -1.015,0 -1.525,0.509 -1.525,1.522 v 7.647 H 8.331 v 2.356 H -8.41 v 3.431 H 0 v 2.7 h -13.852 v 3.505 h 31.818 v -3.505 H 4.031 v -2.7 h 8.222 v -9.172 z" style="fill:#231916;fill-opacity:1;fill-rule:nonzero;stroke:none" id="path1663"></path>
            </g>
            <g id="g1665" transform="matrix(5.8420962,0,0,-5.8420962,1195.6555,136.39432)">
              <path d="m 0,0 v -3.5 h -5.135 v -12.022 h -4.04 v 25.644 h 4.04 L -5.135,0 Z m -23.366,-24.806 c -1.013,0 -1.523,0.509 -1.523,1.52 v 9.284 h 4.039 v -7.266 h 16.74 v -3.538 z m 9.889,31.581 c 0,-2.387 -0.09,-4.504 -0.279,-6.375 -0.189,-1.862 -0.449,-3.481 -0.781,-4.85 l -3.848,0.381 c 0.28,1.446 0.513,2.908 0.688,4.376 0.177,1.473 0.265,2.955 0.265,4.45 h -13.203 v 3.541 h 17.158 z m -8.517,-14.041 h 1.103 c 1.624,0.051 3.251,0.157 4.889,0.324 1.635,0.165 3.199,0.438 4.702,0.819 l 0.568,-3.312 c -0.836,-0.229 -1.787,-0.432 -2.835,-0.607 -1.049,-0.181 -2.169,-0.32 -3.347,-0.422 -1.186,-0.101 -2.374,-0.183 -3.579,-0.249 -1.205,-0.063 -2.377,-0.094 -3.522,-0.094 h -8.862 v 3.541 h 6.847 v 7.078 h 4.036 z" style="fill:#231916;fill-opacity:1;fill-rule:nonzero;stroke:none" id="path1667"></path>
            </g>
          </g>
        </g>
      </g>
    </g>
  </g>
</svg>
